<?xml version="1.0" standalone="no"?>
<!DOCTYPE svg PUBLIC "-//W3C//DTD SVG 20010904//EN"
 "http://www.w3.org/TR/2001/REC-SVG-20010904/DTD/svg10.dtd">
<svg version="1.0" xmlns="http://www.w3.org/2000/svg"
 width="193.000000pt" height="154.000000pt" viewBox="0 0 193.000000 154.000000"
 preserveAspectRatio="xMidYMid meet">
<metadata>
Created by potrace 1.16, written by Peter Selinger 2001-2019
</metadata>
<g transform="translate(0.000000,154.000000) scale(0.100000,-0.100000)"
fill="#000000" stroke="none">
<path d="M560 1522 c-161 -88 -87 -346 164 -567 l66 -58 -83 -32 c-96 -36
-152 -70 -208 -126 -101 -101 -104 -210 -9 -292 91 -78 246 -103 385 -63 67
20 196 86 294 152 36 24 67 42 69 40 8 -9 -51 -106 -103 -169 -129 -155 -357
-278 -605 -326 -100 -20 -294 -32 -396 -25 -71 5 -103 3 -108 -5 -16 -25 49
-33 239 -28 197 6 301 21 443 67 268 88 495 281 573 489 13 36 38 73 74 109
29 29 64 73 77 98 12 24 31 47 40 50 22 7 53 58 66 109 6 22 15 95 21 163 17
185 60 278 156 333 38 22 63 29 103 29 39 0 52 4 52 15 0 33 -91 30 -160 -5
-45 -23 -107 -85 -130 -130 -31 -61 -49 -140 -60 -269 -11 -117 -32 -201 -50
-201 -5 0 -10 14 -12 32 -4 44 -44 73 -81 59 -57 -22 -56 -98 1 -137 l32 -22
-42 -56 c-23 -31 -44 -56 -47 -56 -3 0 -6 39 -7 88 -1 140 -43 263 -139 407
-101 153 -216 251 -362 310 -91 37 -203 45 -253 17z m175 -28 c71 -18 189 -80
253 -132 99 -81 213 -250 259 -385 27 -79 40 -207 29 -281 -7 -44 -12 -50 -72
-94 -85 -61 -234 -147 -304 -174 -83 -33 -245 -32 -317 1 -29 13 -69 41 -88
62 -106 118 26 286 284 363 52 15 53 15 108 -14 100 -54 173 -50 173 8 0 52
-30 67 -134 67 -85 0 -96 2 -133 28 -60 42 -165 153 -212 227 -97 149 -93 292
9 327 47 16 75 16 145 -3z"/>
</g>
</svg>
